# xmcd
#
# Track frame offsets:
#	150
#	24754
#	53583
#	84730
#	110857
#	137492
#	161664
#	188885
#	222511
#	246540
#	282180
#
# Disc length: 4073 seconds
# Revision: 0
# Processed by: cddbd v1.5.2PL0 Copyright (c) Steve Scherf et al.
# Submitted via: dBpowerAMP V12.0
#
DISCID=9e0fe70b
DTITLE=Various Artist - I Love ZYX Italo Disco Collection Volume 5
DYEAR=2006
DGENRE=Italo Disco
TTITLE0=Perestroika Power - Animal Farm
TTITLE1=Josy - Magic
TTITLE2=Lian Ross - Fantasy
TTITLE3=L'Affair - Secrets Eyes
TTITLE4=Max Him - Lady Fantasy
TTITLE5=Tabu D'Apache - Colours
TTITLE6=Jules - You and Me
TTITLE7=Crusin Gang - America
TTITLE8=Claudia T - Dance With Me
TTITLE9=DJ's Project - Vision of Love
TTITLE10=Camaro's Gang - Fuerza Major
EXTD=
EXTT0=
EXTT1=
EXTT2=
EXTT3=
EXTT4=
EXTT5=
EXTT6=
EXTT7=
EXTT8=
EXTT9=
EXTT10=
PLAYORDER=
